Normalized EMG Linear Envelopes
nRows=116
nColumns=4

endheader
time	 med_gas_r	  soleus_r	 tib_ant_r	
4.25	  0.007325	  0.005500	  0.001729	
4.3125	  0.007489	  0.005457	  0.001647	
4.375	  0.007612	  0.005464	  0.001585	
4.4375	  0.007632	  0.005521	  0.001556	
4.5	  0.007611	  0.005577	  0.001557	
4.5625	  0.007661	  0.005574	  0.001575	
4.625	  0.007725	  0.005498	  0.001587	
4.6875	  0.007659	  0.005404	  0.001580	
4.75	  0.007457	  0.005349	  0.001567	
4.8125	  0.007221	  0.005364	  0.001573	
4.875	  0.007022	  0.005422	  0.001613	
4.9375	  0.006886	  0.005463	  0.001672	
5	  0.006816	  0.005433	  0.001716	
5.0625	  0.006820	  0.005323	  0.001723	
5.125	  0.006963	  0.005175	  0.001700	
5.1875	  0.007311	  0.005096	  0.001665	
5.25	  0.007816	  0.005210	  0.001644	
5.3125	  0.008352	  0.005575	  0.001657	
5.375	  0.008860	  0.006121	  0.001699	
5.4375	  0.009339	  0.006579	  0.001733	
5.5	  0.009622	  0.006437	  0.001690	
5.5625	  0.009333	  0.004936	  0.001474	
5.625	  0.008193	  0.001179	  0.000992	
5.6875	  0.006257	 -0.005173	  0.000252	
5.75	  0.003892	 -0.012065	 -0.000408	
5.8125	  0.001902	 -0.012601	 -0.000067	
5.875	  0.002186	  0.006553	  0.002863	
5.9375	  0.008346	  0.062569	  0.010198	
6	  0.024856	  0.163867	  0.022462	
6.0625	  0.055351	  0.294822	  0.037084	
6.125	  0.102141	  0.421249	  0.049209	
6.1875	  0.163899	  0.514796	  0.055380	
6.25	  0.229483	  0.564496	  0.055393	
6.3125	  0.279126	  0.570569	  0.050765	
6.375	  0.300388	  0.542401	  0.043737	
6.4375	  0.302840	  0.500299	  0.037677	
6.5	  0.312742	  0.464497	  0.035861	
6.5625	  0.351146	  0.439078	  0.038984	
6.625	  0.415191	  0.414349	  0.044611	
6.6875	  0.479249	  0.382297	  0.049067	
6.75	  0.514920	  0.342816	  0.049800	
6.8125	  0.513035	  0.302680	  0.046731	
6.875	  0.488829	  0.273418	  0.041834	
6.9375	  0.466592	  0.261634	  0.037432	
7	  0.462317	  0.261264	  0.035052	
7.0625	  0.481384	  0.262645	  0.035405	
7.125	  0.521988	  0.265964	  0.038388	
7.1875	  0.571378	  0.278573	  0.042946	
7.25	  0.608542	  0.301973	  0.047560	
7.3125	  0.622933	  0.328767	  0.051234	
7.375	  0.624986	  0.349980	  0.053852	
7.4375	  0.631894	  0.360249	  0.055430	
7.5	  0.648627	  0.361047	  0.055514	
7.5625	  0.665768	  0.361623	  0.053858	
7.625	  0.670959	  0.370168	  0.051168	
7.6875	  0.659516	  0.382056	  0.048743	
7.75	  0.637242	  0.382348	  0.047670	
7.8125	  0.615584	  0.362730	  0.048252	
7.875	  0.602647	  0.331081	  0.049903	
7.9375	  0.598984	  0.302613	  0.051739	
8	  0.603290	  0.287201	  0.053257	
8.0625	  0.618982	  0.283471	  0.054297	
8.125	  0.650515	  0.281266	  0.054688	
8.1875	  0.693804	  0.274131	  0.054188	
8.25	  0.734474	  0.267957	  0.052579	
8.3125	  0.757153	  0.272623	  0.050039	
8.375	  0.754526	  0.291422	  0.047495	
8.4375	  0.729078	  0.323050	  0.046386	
8.5	  0.693502	  0.364735	  0.048064	
8.5625	  0.668005	  0.408353	  0.052775	
8.625	  0.665801	  0.439804	  0.058740	
8.6875	  0.679543	  0.446792	  0.063222	
8.75	  0.689418	  0.430835	  0.064921	
8.8125	  0.682472	  0.408711	  0.064467	
8.875	  0.659110	  0.393902	  0.063074	
8.9375	  0.628747	  0.385792	  0.061677	
9	  0.605563	  0.381111	  0.060709	
9.0625	  0.600420	  0.378579	  0.060056	
9.125	  0.610360	  0.373906	  0.059424	
9.1875	  0.620030	  0.362605	  0.058546	
9.25	  0.617151	  0.341288	  0.057032	
9.3125	  0.603048	  0.308255	  0.054656	
9.375	  0.585714	  0.272083	  0.051901	
9.4375	  0.569677	  0.249035	  0.049809	
9.5	  0.557845	  0.246387	  0.049160	
9.5625	  0.554784	  0.258030	  0.049795	
9.625	  0.560557	  0.274991	  0.050736	
9.6875	  0.567612	  0.294795	  0.051032	
9.75	  0.567723	  0.319845	  0.050408	
9.8125	  0.556586	  0.342842	  0.048987	
9.875	  0.534063	  0.343092	  0.046869	
9.9375	  0.506483	  0.310380	  0.044159	
10	  0.483751	  0.260651	  0.041025	
10.0625	  0.470514	  0.220092	  0.037943	
10.125	  0.466160	  0.205222	  0.036006	
10.1875	  0.471638	  0.216083	  0.036297	
10.25	  0.488127	  0.241438	  0.038773	
10.3125	  0.512164	  0.272531	  0.042276	
10.375	  0.537647	  0.304887	  0.045369	
10.4375	  0.558426	  0.328045	  0.046900	
10.5	  0.568147	  0.330993	  0.046456	
10.5625	  0.564093	  0.316427	  0.044630	
10.625	  0.550096	  0.296033	  0.042540	
10.6875	  0.529897	  0.275070	  0.040832	
10.75	  0.500341	  0.249120	  0.038920	
10.8125	  0.456986	  0.213146	  0.035653	
10.875	  0.405748	  0.170595	  0.031106	
10.9375	  0.362078	  0.132078	  0.026781	
11	  0.334702	  0.104411	  0.023692	
11.0625	  0.315850	  0.085597	  0.021388	
11.125	  0.290615	  0.071753	  0.018981	
11.1875	  0.250006	  0.061852	  0.016204	
11.25	  0.194630	  0.054041	  0.013384	
11.3125	  0.132473	  0.043868	  0.010953	
11.375	  0.073100	  0.028429	  0.009088	
11.4375	  0.019322	  0.008952	  0.007608	
